#!OML:ASF F:\VICON\USERDATA\INSTALL\rory3\rory3.ASF
:FULLY-SPECIFIED
:DEGREES
1449
root -9.75882 17.7719 0.332782 12.0038 -19.9377 5.36703
lowerback 14.852 -0.499902 -0.167093
upperback 5.23468 -0.592672 3.65871
thorax -2.74307 -0.343612 4.04175
lowerneck -21.3243 0.135398 -7.8806
upperneck 22.6423 2.34889 1.72841
head 10.7241 0.583589 2.28524
rclavicle -7.31528e-014 3.18055e-014
rhumerus -22.1114 1.00183 -80.6421
rradius 52.5824
rwrist -7.91396
rhand -32.1938 -2.29581
rfingers 7.12502
rthumb -5.43583 -32.2061
lclavicle -7.31528e-014 3.18055e-014
lhumerus -24.0272 -0.294285 89.5141
lradius 45.5067
lwrist 49.4106
lhand -19.4159 40.7574
lfingers 7.12502
lthumb 6.90366 70.6248
rfemur -36.5838 2.22382 10.9424
rtibia 36.4566
rfoot -11.3003 -4.55553
rtoes 8.54217
lfemur -23.8896 -7.97344 -18.2383
ltibia 24.4326
lfoot -10.623 -12.6281
ltoes -7.83114
1450
root -9.77732 17.7808 0.295165 12.5312 -19.5363 5.39048
lowerback 15.2378 -0.568492 0.00189437
upperback 5.31329 -0.65209 3.69172
thorax -2.86378 -0.371983 3.99833
lowerneck -21.1089 0.199033 -7.85232
upperneck 22.9131 2.43153 1.6501
head 10.7812 0.604814 2.26697
rclavicle 0 -3.18055e-014
rhumerus -22.4091 -0.0708213 -80.1626
rradius 53.405
rwrist -8.1415
rhand -32.8528 -2.43293
rfingers 7.12502
rthumb -6.07208 -32.3259
lclavicle 0 -3.18055e-014
lhumerus -24.5256 0.353666 89.1216
lradius 46.0129
lwrist 50.7855
lhand -19.859 41.2342
lfingers 7.12502
lthumb 6.47598 71.1152
rfemur -37.1132 2.23287 10.9355
rtibia 36.321
rfoot -11.3206 -5.06589
rtoes 8.77388
lfemur -24.5593 -7.78271 -18.0488
ltibia 24.2122
lfoot -10.3863 -13.0904
ltoes -8.56826
1451
root -9.79312 17.7891 0.25779 13.089 -19.1897 5.31282
lowerback 15.5636 -0.654439 0.269225
upperback 5.43359 -0.72208 3.71161
thorax -2.90902 -0.406329 3.88531
lowerneck -20.9556 0.28471 -7.75582
upperneck 23.2385 2.52772 1.57855
head 10.8699 0.637043 2.24365
rclavicle -2.38542e-015 -1.27222e-014
rhumerus -22.5706 -0.968954 -79.7601
rradius 54.2178
rwrist -8.26856
rhand -33.4609 -2.78351
rfingers 7.12502
rthumb -6.65921 -32.6588
lclavicle -2.38542e-015 -1.27222e-014
lhumerus -24.8861 0.883139 88.7001
lradius 46.2553
lwrist 51.7116
lhand -20.7376 41.1768
lfingers 7.12502
lthumb 5.62771 71.082
rfemur -37.6376 2.19967 11.0522
rtibia 36.164
rfoot -11.282 -5.51934
rtoes 8.75264
lfemur -25.2339 -7.64525 -17.7444
ltibia 24.0053
lfoot -10.0223 -13.4867
ltoes -8.06626
1452
root -9.80763 17.7953 0.224028 13.7124 -18.941 5.30007
lowerback 15.7677 -0.70219 0.493715
upperback 5.52805 -0.74964 3.71001
thorax -2.91912 -0.419521 3.76414
lowerneck -20.8569 0.334996 -7.70866
upperneck 23.7115 2.61088 1.46548
head 11.0263 0.648192 2.21483
rclavicle 5.00937e-014 2.54444e-014
rhumerus -22.7392 -1.75258 -79.3088
rradius 54.9968
rwrist -8.18357
rhand -33.93 -3.00551
rfingers 7.12502
rthumb -7.11203 -32.866
lclavicle 5.00937e-014 2.54444e-014
lhumerus -25.2761 1.16586 88.3875
lradius 46.462
lwrist 52.3213
lhand -21.8033 40.8963
lfingers 7.12502
lthumb 4.59869 70.8264
rfemur -38.2867 2.07757 11.1142
rtibia 36.0431
rfoot -11.1806 -5.79754
rtoes 8.94577
lfemur -25.9444 -7.46856 -17.5263
ltibia 23.7692
lfoot -9.73652 -13.7508
ltoes -7.60904
1453
root -9.82325 17.8016 0.188455 14.3187 -18.6413 5.421
lowerback 15.9772 -0.758065 0.587664
upperback 5.59734 -0.804619 3.71466
thorax -2.95506 -0.446288 3.72968
lowerneck -20.6754 0.36897 -7.71941
upperneck 24.1048 2.70701 1.2621
head 11.1396 0.650814 2.16169
rclavicle -3.73715e-014 -2.22639e-014
rhumerus -22.8661 -2.41373 -78.8163
rradius 55.7568
rwrist -7.92239
rhand -34.2686 -3.12641
rfingers 7.12502
rthumb -7.4388 -32.9756
lclavicle -3.73715e-014 -2.22639e-014
lhumerus -25.5674 1.58863 88.0822
lradius 46.7198
lwrist 51.9796
lhand -22.5896 41.0082
lfingers 7.12502
lthumb 3.83946 70.9533
rfemur -38.9856 2.01257 10.9915
rtibia 35.9915
rfoot -11.1749 -6.12514
rtoes 9.22582
lfemur -26.6726 -7.281 -17.46
ltibia 23.4797
lfoot -9.52605 -13.9201
ltoes -8.10907
1454
root -9.83788 17.8039 0.148229 14.8848 -18.2659 5.75102
lowerback 16.2125 -0.86672 0.444432
upperback 5.68167 -0.963596 3.71821
thorax -2.97837 -0.525834 3.84909
lowerneck -20.4704 0.415851 -7.78766
upperneck 24.4207 2.8285 1.08978
head 11.2172 0.665932 2.13115
rclavicle -1.59028e-015 5.725e-014
rhumerus -22.7364 -2.95562 -78.3598
rradius 56.4034
rwrist -7.48517
rhand -34.567 -2.80971
rfingers 7.12502
rthumb -7.72686 -32.6485
lclavicle -1.59028e-015 5.725e-014
lhumerus -25.6519 2.07811 87.7312
lradius 46.9751
lwrist 50.9408
lhand -23.2245 41.6049
lfingers 7.12502
lthumb 3.22634 71.5602
rfemur -39.7534 1.81156 10.6804
rtibia 35.991
rfoot -11.1568 -6.46866
rtoes 9.00168
lfemur -27.456 -7.07481 -17.6251
ltibia 23.1724
lfoot -9.38469 -14.1402
ltoes -9.43529
1455
root -9.85065 17.8015 0.109028 15.5079 -18.0544 6.20488
lowerback 16.2972 -0.910733 0.180909
upperback 5.79212 -1.0653 3.63588
thorax -2.89654 -0.578446 3.93079
lowerneck -20.2708 0.461002 -7.8593
upperneck 24.7019 2.92212 1.01286
head 11.2818 0.681639 2.13133
rclavicle 2.54444e-014 3.97569e-014
rhumerus -22.4629 -3.45624 -77.9638
rradius 56.9166
rwrist -7.05982
rhand -35.1233 -2.78558
rfingers 7.12502
rthumb -8.26375 -32.604
lclavicle 2.54444e-014 3.97569e-014
lhumerus -25.5464 2.20138 87.4164
lradius 46.9952
lwrist 49.5791
lhand -23.7079 41.9678
lfingers 7.12502
lthumb 2.75945 71.9297
rfemur -40.6468 1.589 10.2215
rtibia 35.9774
rfoot -11.1086 -6.68546
rtoes 9.31885
lfemur -28.3232 -6.89709 -17.9098
ltibia 22.8971
lfoot -9.35781 -14.2564
ltoes -10.5135
1456
root -9.85682 17.8041 0.0680913 16.0663 -17.7736 6.34777
lowerback 16.5761 -0.962869 0.315679
upperback 5.90065 -1.11002 3.60975
thorax -2.92942 -0.599861 3.84071
lowerneck -20.0634 0.524751 -7.87279
upperneck 25.0454 3.04313 0.867978
head 11.37 0.703826 2.10195
rclavicle -3.81667e-014 2.06736e-014
rhumerus -22.2415 -3.86116 -77.5559
rradius 57.3979
rwrist -6.76408
rhand -35.722 -3.47354
rfingers 7.12502
rthumb -8.84151 -33.2683
lclavicle -3.81667e-014 2.06736e-014
lhumerus -25.5228 2.09388 87.2056
lradius 46.9764
lwrist 47.6765
lhand -24.3736 41.5335
lfingers 7.12502
lthumb 2.11659 71.5028
rfemur -41.3332 1.32696 10.1261
rtibia 35.9509
rfoot -10.9954 -6.83447
rtoes 9.67203
lfemur -29.0193 -6.77817 -17.8994
ltibia 22.6659
lfoot -9.4822 -14.3224
ltoes -11.8112
1457
root -9.86219 17.8125 0.0248967 16.5396 -17.3298 6.23709
lowerback 17.0096 -1.07137 0.711645
upperback 6.05941 -1.18031 3.67285
thorax -2.99176 -0.633177 3.70588
lowerneck -19.9199 0.588527 -7.79269
upperneck 25.42 3.18215 0.582576
head 11.4877 0.722855 2.00912
rclavicle -2.62396e-014 -9.54166e-015
rhumerus -21.9809 -4.16611 -77.1648
rradius 57.8637
rwrist -6.22771
rhand -36.0609 -3.69014
rfingers 7.12502
rthumb -9.16858 -33.4708
lclavicle -2.62396e-014 -9.54166e-015
lhumerus -25.439 1.76118 86.9856
lradius 47.0508
lwrist 45.5632
lhand -24.8349 41.3664
lfingers 7.12502
lthumb 1.67099 71.3396
rfemur -41.8202 1.03568 10.344
rtibia 35.9142
rfoot -10.9112 -7.03571
rtoes 9.60818
lfemur -29.5733 -6.57544 -17.679
ltibia 22.4852
lfoot -9.66597 -14.4427
ltoes -14.1169
1458
root -9.8747 17.8126 -0.0156459 17.0227 -17.0986 6.38883
lowerback 17.2952 -1.08016 0.669765
upperback 6.2897 -1.19904 3.67262
thorax -2.89515 -0.6458 3.73765
lowerneck -19.5474 0.576223 -7.95662
upperneck 25.4351 3.19253 0.534592
head 11.4201 0.70713 2.01539
rclavicle -1.82882e-014 7.4743e-014
rhumerus -21.611 -4.22903 -76.8513
rradius 58.4138
rwrist -5.83247
rhand -36.6998 -4.14182
rfingers 7.12502
rthumb -9.78507 -33.8945
lclavicle -1.82882e-014 7.4743e-014
lhumerus -25.0665 1.37588 86.8014
lradius 46.9581
lwrist 43.1986
lhand -24.8127 41.1467
lfingers 7.12502
lthumb 1.6925 71.1197
rfemur -42.4657 0.925001 10.2148
rtibia 35.88
rfoot -10.8945 -7.31537
rtoes 9.91884
lfemur -30.2441 -6.2036 -17.7683
ltibia 22.3818
lfoot -9.74878 -14.499
ltoes -16.5952
